<svg xmlns="http://www.w3.org/2000/svg" height="48" viewBox="0 -960 960 960" width="48"><path d="M294-224q-103.127 0-174.064-72.212Q49-368.424 49-471.667 49-576 119.764-648.5 190.527-721 292-721h442q73.875 0 124.938 52.194Q910-616.612 910-542.425q0 73.775-51.062 125.1Q807.875-366 734-366H332.9q-45.28 0-76.59-31.158Q225-428.316 225-472.028 225-517 256.5-548q31.5-31 78.301-31H734v61H333.957q-18.557 0-32.257 12.882T288-472.193q0 19.618 12.987 31.905Q313.975-428 333-428h401.417q46.705 0 80.144-33.789Q848-495.577 848-543.289 848-590 814.44-624T734-658H290.657q-76.779 0-128.218 54.459Q111-549.082 111-472.416 111-395 163.777-341.5T294.241-288H734v64H294Z"/></svg>